<svg xmlns="http://www.w3.org/2000/svg" xmlns:xlink="http://www.w3.org/1999/xlink" fill="none" viewBox="0 0 24 24"><defs><path id="a" fill="#515151" fill-rule="evenodd" d="M9.43 8.584c-2.174 3.635-4.706 5.193-7.14 7.075a21.706 21.706 0 0 0 3.278 3.18l3.797-3.7-2.564 4.61C9.82 21.825 13.195 23.09 16.765 24c-.292-3.505.909-6.653 2.532-9.704L9.43 8.584Z" clip-rule="evenodd"/></defs><path fill="#515151" d="M20.465 10.239 12.35 5.533c-.487-.26-1.103-.097-1.363.39l-.682 1.168a.968.968 0 0 0 .357 1.363l8.114 4.706c.487.26 1.104.097 1.396-.39l.681-1.168c.26-.487.098-1.103-.39-1.363Z"/><use xlink:href="#a" fill-rule="evenodd" clip-rule="evenodd"/><use xlink:href="#a" fill-rule="evenodd" clip-rule="evenodd"/><path fill="#515151" d="m21.211.665-.94-.52a1.012 1.012 0 0 0-1.396.357l-3.376 5.875 2.694 1.558 3.375-5.875a1.012 1.012 0 0 0-.357-1.395Z"/></svg>
