<svg xmlns="http://www.w3.org/2000/svg" fill="none" viewBox="0 0 24 24"><path fill="#515151" d="M0 3.7742c0-1.06452.87097-1.93549 1.93548-1.93549H22.0645a1.9356 1.9356 0 0 1 1.3686.56689c.363.36297.5669.85527.5669 1.3686a1.93537 1.93537 0 0 1-.5669 1.36859 1.9356 1.9356 0 0 1-1.3686.56689H1.93548A1.9355 1.9355 0 0 1 0 3.7742Zm22.0645 6.2903H1.93548a1.93538 1.93538 0 0 0-1.36859.5669A1.93558 1.93558 0 0 0 0 12c0 .5133.20392 1.0056.56689 1.3686s.85527.5669 1.36859.5669H22.0645A1.93548 1.93548 0 0 0 24 12a1.93548 1.93548 0 0 0-1.9355-1.9355Zm0 8.2258H1.93548a1.93538 1.93538 0 0 0-1.36859.5669A1.93558 1.93558 0 0 0 0 20.2258c0 .5133.20392 1.0056.56689 1.3686s.85527.5669 1.36859.5669H22.0645A1.93548 1.93548 0 0 0 24 20.2258a1.93548 1.93548 0 0 0-1.9355-1.9355Z"/></svg>